<?xml version="1.0" encoding="utf-8"?>
<svg version="1.1" id="clef" xmlns="http://www.w3.org/2000/svg" xmlns:xlink="http://www.w3.org/1999/xlink" x="0px" y="0px"
	 viewBox="0 0 192.5 60.5" xml:space="preserve">
<g>
	<path d="M53.5,30.1c0.1,0.8,0.8,10.3,10.2,10c0.2,0,0.4,0.1,0.6,0.2h0.2V20.4c-0.4-0.1-0.7-0.1-1.1-0.2
		C54.3,19.9,53.6,29.1,53.5,30.1"/>
	<path d="M149.1,33.1H190v-7.4H75.2v-0.1c0-2.5-2.2-3.9-4.4-4.7v18.3c2.2-0.8,4.4-2.2,4.4-4.7v-0.1h73.9V33.1z"/>
	<path d="M181.9,38.8h8.2v-3.5H151v3.5h8.2c0.9,0,1.6,0.7,1.6,1.6c0,0.9-0.7,1.6-1.6,1.6H151v10.4h3.7c-0.4-3-0.5-5.5-0.5-5.6
		c0-0.7,0.6-1.3,1.3-1.3s1.3,0.6,1.3,1.3c0,0,0,2.7,0.5,5.6h3.3c-0.7-2.6-0.8-5.1-0.8-5.6c0-0.7,0.5-1.3,1.3-1.3
		c0.7,0,1.3,0.5,1.3,1.3c0,1.2,0.3,3.6,0.9,5.7h5.3c-1-1.2-1.7-3.2-1.7-5.6c0-3.7,3.6-8,3.6-8s3.6,4.4,3.6,8c0,2.4-0.7,4.5-1.7,5.6
		h5.3c0.6-2.1,0.9-4.4,0.9-5.7c0-0.7,0.6-1.3,1.3-1.3s1.3,0.6,1.3,1.3c0,0.5-0.1,3-0.8,5.6h3.3c0.5-3,0.5-5.6,0.5-5.6
		c0-0.7,0.6-1.3,1.3-1.3l0,0c0.7,0,1.3,0.6,1.3,1.3c0,0.2,0,2.7-0.5,5.6h3.7V42h-8.2c-0.9,0-1.6-0.7-1.6-1.6
		C180.2,39.5,181,38.8,181.9,38.8"/>
	<path d="M51.4,30.1L51.4,30.1c0-0.2,0.5-9.5,8.4-11.7C56.3,16,53.3,11.9,46.5,8C31.7-0.4,20.4,4.3,16,8.5
		c-6.8,6.5-2.2,14.3-2.2,14.3C3,22.6,2.5,30.2,2.5,30.2s0.5,7.7,11.3,7.5c0,0-4.6,7.8,2.2,14.3c4.4,4.2,15.7,8.9,30.5,0.5
		c7-4,10-8.3,13.7-10.7C51.9,39.7,51.4,30.1,51.4,30.1 M29.5,50.1c-12.5-2.6-8.3-14-8.3-14c0.7-1.9,2.6-2.7,4.8-3
		c0.9-0.1,1.6,0.6,1.6,1.4V40h5.9v-5.6c0-0.8,0.7-1.5,1.5-1.5c0.4,0,0.8,0,1.3,0c10.2,0,12.2,2.8,12.2,7.3
		C48.4,43.4,42,52.6,29.5,50.1 M36.2,27.3c-0.4,0-0.9,0-1.3,0c-0.8,0-1.5-0.6-1.5-1.5v-5.5h-5.9v5.5c0,0.9-0.8,1.6-1.6,1.4
		c-2.2-0.3-4.1-1.1-4.8-3c0,0-4.2-11.5,8.3-14c12.5-2.6,18.9,6.7,18.9,9.8C48.4,24.6,46.4,27.3,36.2,27.3"/>
	<path d="M68.7,23.1c-0.2,0.2-0.6,0.4-1,0.4c-0.5,0-0.9-0.2-1.1-0.6v14.5c0.3-0.3,0.7-0.6,1.1-0.6s0.7,0.1,1,0.4V23.1z"/>
</g>
</svg>
