<?xml version="1.0" encoding="utf-8"?>
<svg version="1.1" id="logo" xmlns="http://www.w3.org/2000/svg" xmlns:xlink="http://www.w3.org/1999/xlink" x="0px" y="0px"
	 viewBox="0 0 189.5 58.9" xml:space="preserve">
<g>
	<path d="M5.4,23c0,1.2,0,2.4,0.1,3.6c0,1.2,0.1,2.1,0.1,2.7l0.1,0.9c-0.7-0.1-1.3-0.1-2-0.1l-2,0.1C1.7,28,1.8,25.6,1.8,23v-8.7
		L1.6,9.9l2.5-0.6h1.4c-0.1,3.5-0.1,6.5-0.1,9V23z"/>
	<path d="M20.4,26.9c-1.3,2.4-3.3,3.6-6,3.6c-2,0-3.7-0.7-4.9-2.1c-1.2-1.4-1.9-3.1-1.9-5.2s0.6-3.8,1.9-5.2
		c1.2-1.4,2.9-2.1,4.9-2.1c2,0,3.7,0.7,4.9,2c1.2,1.4,1.9,3.1,1.9,5.1c0,0.4,0,0.6,0,0.8c-3.4-0.1-5.6-0.1-6.5-0.1l-3,0.1
		c0.1,1.4,0.4,2.5,0.9,3.4c0.5,0.8,1.2,1.2,2,1.2c1.3,0,2.3-1,2.7-3L20.4,26.9z M14.6,22.2l2.9-0.1c-0.1-1.3-0.5-2.3-1-3.1
		c-0.5-0.7-1.2-1.1-2-1.1c-0.8,0-1.4,0.4-2,1.1c-0.5,0.7-0.8,1.8-1,3.1C12.8,22.1,13.8,22.2,14.6,22.2"/>
	<path d="M32.9,18.7c0,2.3,0,4.5,0.1,6.4c0.1,1.9,0.1,3.2,0.2,4l0.1,1.1c-1.1-0.1-2.1-0.2-3.2-0.2l-3.2,0.2
		c0.3-3.2,0.4-8.1,0.4-14.9c0-3,0-5.8-0.1-8.2c-0.1-2.5-0.1-4.2-0.2-5.2l-0.1-1.5c1.1,0.1,2.1,0.2,3.2,0.2c0.7,0,2.1,0,4.3-0.1
		c2.2-0.1,3.5-0.1,4-0.1c1.5,0,2.8,0.1,4,0.4c1.2,0.3,2.4,0.8,3.5,1.4c1.1,0.7,2,1.6,2.6,2.9c0.6,1.2,0.9,2.7,0.9,4.5
		c0,1.4-0.2,2.6-0.6,3.7c-0.4,1.1-1,2-1.7,2.6c-0.7,0.7-1.5,1.2-2.5,1.6c-1,0.4-2,0.7-3,0.9c-1,0.2-2.1,0.2-3.2,0.2H32.9z M33.1,3.4
		c-0.1,2.9-0.2,7-0.2,12.4h4.8c1.9,0,3.4-0.6,4.3-1.7c1-1.1,1.5-2.6,1.5-4.5c0-1.9-0.5-3.4-1.5-4.6c-1-1.2-2.4-1.7-4.3-1.7
		C36.8,3.2,35.3,3.3,33.1,3.4"/>
	<path d="M51.2,20.9c0.9-0.9,2.1-1.5,3.4-1.8c1.3-0.3,2.7-0.6,4-0.8c1.3-0.2,2.5-0.5,3.4-1c0.9-0.5,1.4-1.1,1.4-2
		c0-0.8-0.4-1.5-1.1-2c-0.7-0.5-1.7-0.8-2.9-0.8c-1.1,0-2,0.3-2.7,0.9c-0.7,0.6-1.2,1.6-1.3,2.9l-4.3-1.8c1.3-3.1,4.2-4.6,8.6-4.6
		c3,0,5.3,0.7,6.8,2.1c1.5,1.4,2.2,3.5,2.2,6.3v4.7c0,1.1,0,2.3,0.1,3.5c0.1,1.2,0.1,2.1,0.2,2.7l0.1,0.9c-0.9-0.1-1.8-0.2-2.8-0.2
		l-2.8,0.2v-2.8l-0.2-0.1c-1.3,2.1-3.4,3.2-6.3,3.2c-2.1,0-3.8-0.5-5.1-1.5c-1.4-1-2-2.5-2-4.4C49.7,23,50.2,21.8,51.2,20.9
		 M63.4,19.5l-0.2-0.1c-0.4,0.4-1.1,0.7-2,0.9c-1,0.2-1.8,0.4-2.6,0.5c-0.8,0.1-1.5,0.5-2.1,1.1c-0.6,0.6-1,1.4-1,2.4
		c0,1.1,0.3,1.9,0.9,2.5c0.6,0.6,1.5,0.9,2.5,0.9c1.5,0,2.6-0.5,3.3-1.6c0.8-1.1,1.1-2.6,1.1-4.6V19.5z"/>
	<path d="M71.2,25.4l4.3-1.8c0.2,2.8,1.8,4.2,4.7,4.2c1.1,0,1.9-0.2,2.4-0.6c0.5-0.4,0.8-1,0.8-1.6c0-0.8-0.4-1.5-1.2-2.1
		c-0.8-0.6-1.8-1-2.9-1.4c-1.1-0.4-2.3-0.8-3.4-1.2c-1.1-0.4-2.1-1.1-2.9-1.9c-0.8-0.8-1.2-1.9-1.2-3.1c0-1.9,0.8-3.4,2.3-4.4
		c1.6-1,3.5-1.5,5.8-1.5c4.3,0,7,1.5,8.3,4.6l-4.3,1.8c-0.1-1.4-0.5-2.3-1.1-2.9c-0.6-0.6-1.5-0.9-2.6-0.9c-1,0-1.8,0.2-2.3,0.6
		c-0.5,0.4-0.8,0.9-0.8,1.6c0,0.8,0.4,1.5,1.2,2c0.8,0.5,1.8,1,2.9,1.4c1.1,0.4,2.3,0.8,3.4,1.2c1.1,0.4,2.1,1.1,2.9,2
		c0.8,0.9,1.2,1.9,1.2,3.2c0,1.8-0.7,3.3-2.1,4.3c-1.4,1-3.5,1.6-6.3,1.6C75.5,30.5,72.5,28.8,71.2,25.4"/>
	<path d="M90.1,25.4l4.3-1.8c0.2,2.8,1.8,4.2,4.7,4.2c1.1,0,1.9-0.2,2.4-0.6c0.5-0.4,0.8-1,0.8-1.6c0-0.8-0.4-1.5-1.2-2.1
		s-1.8-1-2.9-1.4c-1.1-0.4-2.3-0.8-3.4-1.2c-1.1-0.4-2.1-1.1-2.9-1.9c-0.8-0.8-1.2-1.9-1.2-3.1c0-1.9,0.8-3.4,2.3-4.4
		c1.6-1,3.5-1.5,5.8-1.5c4.3,0,7,1.5,8.3,4.6l-4.3,1.8c-0.1-1.4-0.5-2.3-1.1-2.9c-0.6-0.6-1.5-0.9-2.6-0.9c-1,0-1.8,0.2-2.3,0.6
		c-0.5,0.4-0.8,0.9-0.8,1.6c0,0.8,0.4,1.5,1.2,2c0.8,0.5,1.8,1,2.9,1.4c1.1,0.4,2.3,0.8,3.4,1.2c1.1,0.4,2.1,1.1,2.9,2
		c0.8,0.9,1.2,1.9,1.2,3.2c0,1.8-0.7,3.3-2.1,4.3c-1.4,1-3.5,1.6-6.3,1.6C94.4,30.5,91.4,28.8,90.1,25.4"/>
	<path d="M23.6,50l0.2,8.1c-1-0.2-2.1-0.2-3.3-0.2l-3.3,0.2c0.2-2.5,0.2-5.2,0.2-8.1v-5.4c0-2-0.4-3.6-1.2-4.8
		c-0.8-1.2-2-1.8-3.6-1.8c-1.5,0-2.6,0.6-3.5,1.7C8.4,40.8,8,42.2,8,43.9V50c0,1.3,0,2.6,0.1,4c0,1.4,0.1,2.4,0.2,3.1l0.1,1
		c-1.1-0.2-2.2-0.2-3.4-0.2l-3.4,0.2c0.2-2.6,0.3-6.4,0.3-11.4c0-2.2,0-4.3-0.1-6.2c0-1.9-0.1-3.2-0.2-4l-0.1-1.2
		c1,0.2,2.1,0.2,3.2,0.2l3.4-0.2c-0.1,0.9-0.2,1.8-0.3,2.9L8,38.3c1.6-2.2,4-3.3,7.2-3.3c1.7,0,3.2,0.4,4.5,1.2
		c1.3,0.8,2.3,1.9,3,3.4h0.3c0.7-1.5,1.7-2.6,3.1-3.4c1.4-0.8,3-1.2,4.8-1.2c2.5,0,4.5,0.8,6.1,2.5c1.6,1.7,2.4,3.8,2.4,6.5v6
		l0.2,8.1c-1-0.2-2.1-0.2-3.3-0.2l-3.3,0.2c0.2-2.5,0.2-5.2,0.2-8.1v-5.4c0-2-0.4-3.6-1.2-4.8c-0.8-1.2-2-1.8-3.6-1.8
		c-1.5,0-2.6,0.6-3.5,1.7c-0.9,1.1-1.3,2.6-1.3,4.3V50z"/>
	<path d="M43,43.4l-0.2-8.1c1,0.2,2.1,0.2,3.3,0.2l3.3-0.2c-0.2,2.5-0.2,5.2-0.2,8.1v5.4c0,2,0.4,3.6,1.2,4.8c0.8,1.2,2,1.8,3.6,1.8
		c1.4,0,2.6-0.6,3.5-1.7c0.9-1.1,1.3-2.5,1.3-4.2v-6.2c0-1.3,0-2.6-0.1-4c-0.1-1.4-0.1-2.4-0.2-3.1l0-1c1.1,0.2,2.2,0.2,3.4,0.2
		l3.4-0.2c-0.2,2.6-0.3,6.4-0.3,11.4c0,2.2,0,4.3,0.1,6.2c0.1,1.9,0.1,3.2,0.2,4l0,1.2c-1-0.2-2.1-0.2-3.2-0.2l-3.4,0.2l0.3-2.9
		l-0.2-0.1c-1.6,2.2-4,3.3-7.2,3.3c-2.5,0-4.5-0.8-6.1-2.5c-1.6-1.7-2.4-3.9-2.4-6.5V43.4z"/>
	<path d="M84,39.2C83.7,39,83.1,39,82.3,39c-2.3,0-3.9,0.8-5,2.4c-1.1,1.6-1.6,3.7-1.6,6.2V50c0,1.3,0,2.6,0.1,4
		c0,1.4,0.1,2.4,0.2,3.1l0.1,1c-1.1-0.2-2.2-0.2-3.4-0.2l-3.4,0.2c0.2-2.6,0.3-6.4,0.3-11.4c0-2.2,0-4.3-0.1-6.2
		c0-1.9-0.1-3.2-0.2-4l-0.1-1.2c1,0.2,2.1,0.2,3.2,0.2l3.4-0.2c-0.1,1.5-0.2,3-0.3,4.6l0.2,0.1c1.9-3.3,4.4-5,7.5-5l1.1,0.2L84,39.2
		z"/>
	<path d="M86.9,47.6c1.1-1,2.4-1.7,3.9-2.1c1.5-0.3,3.1-0.6,4.6-0.9c1.5-0.2,2.8-0.6,3.9-1.1c1.1-0.5,1.6-1.3,1.6-2.3
		c0-0.9-0.4-1.7-1.2-2.3c-0.8-0.6-1.9-0.9-3.3-0.9c-1.2,0-2.3,0.4-3.2,1.1c-0.9,0.7-1.3,1.8-1.5,3.3l-4.9-2.1
		c1.5-3.5,4.8-5.3,9.9-5.3c3.5,0,6.1,0.8,7.8,2.4c1.7,1.6,2.5,4,2.5,7.3V50c0,1.3,0,2.6,0.1,4c0.1,1.4,0.1,2.4,0.2,3.1l0.1,1
		c-1-0.2-2.1-0.2-3.2-0.2l-3.2,0.2v-3.2l-0.2-0.1c-1.5,2.5-3.9,3.7-7.3,3.7c-2.4,0-4.3-0.6-5.9-1.7c-1.6-1.1-2.3-2.8-2.3-5
		C85.3,50,85.8,48.6,86.9,47.6 M100.9,46l-0.2-0.1c-0.5,0.4-1.2,0.8-2.3,1c-1.1,0.3-2.1,0.5-3,0.6c-0.9,0.2-1.7,0.6-2.5,1.2
		c-0.7,0.7-1.1,1.6-1.1,2.8c0,1.2,0.4,2.2,1.1,2.9c0.7,0.7,1.7,1,2.9,1c1.7,0,2.9-0.6,3.8-1.8c0.9-1.2,1.3-3,1.3-5.2V46z"/>
	<path d="M112.8,25.6c0.8-0.8,1.7-1.1,2.7-1.1c1.1,0,2,0.4,2.7,1.1c0.7,0.8,1.1,1.7,1.1,2.7c0,1-0.4,1.9-1.1,2.7
		c-0.7,0.7-1.7,1.1-2.7,1.1c-1.1,0-2-0.4-2.7-1.1c-0.8-0.7-1.1-1.6-1.1-2.7C111.6,27.3,112,26.4,112.8,25.6 M112.4,44.7
		c0-1.5,0-3-0.1-4.5c-0.1-1.6-0.1-2.8-0.2-3.6l-0.1-1.2c1.1,0.2,2.2,0.2,3.4,0.2l3.5-0.2c-0.2,1.6-0.4,4.1-0.4,7.5v6.7
		c0,1.6,0,3.1,0.1,4.6c0.1,1.4,0.1,2.5,0.2,3.1l0.1,0.9c-1.1-0.2-2.3-0.2-3.4-0.2l-3.4,0.2c0.2-2.1,0.4-5,0.4-8.6V44.7z"/>
	<path d="M129.8,46.4c0,1.9,0,3.9,0.1,5.8c0.1,2,0.1,3.4,0.2,4.5l0.1,1.5c-1.1-0.2-2.2-0.2-3.3-0.2l-3.3,0.2
		c0.2-3.7,0.4-7.6,0.4-11.7V32.2l-0.2-7.3l4.1-1h2.3c-0.2,5.8-0.2,10.7-0.2,14.8V46.4z"/>
	<path d="M140.7,46.4c0,1.9,0,3.9,0.1,5.8c0.1,2,0.1,3.4,0.2,4.5l0.1,1.5c-1.1-0.2-2.2-0.2-3.3-0.2l-3.3,0.2
		c0.2-3.7,0.4-7.6,0.4-11.7V32.2l-0.2-7.3l4.1-1h2.3c-0.2,5.8-0.2,10.7-0.2,14.8V46.4z"/>
	<path d="M165.2,52.7c-2.2,3.9-5.4,5.8-9.7,5.8c-3.3,0-6-1.1-8-3.4c-2-2.2-3.1-5-3.1-8.4c0-3.4,1-6.2,3.1-8.4c2-2.2,4.7-3.4,8-3.4
		c3.3,0,6,1.1,8,3.3c2,2.2,3,5,3.1,8.3c0,0.6,0,1,0,1.3c-5.6-0.2-9.2-0.2-10.7-0.2l-4.8,0.2c0.2,2.3,0.7,4.2,1.5,5.5
		c0.9,1.4,2,2,3.3,2c2.2,0,3.7-1.6,4.5-4.8L165.2,52.7z M155.8,45l4.8-0.2c-0.2-2.1-0.7-3.8-1.6-5c-0.9-1.2-1.9-1.8-3.2-1.8
		c-1.3,0-2.3,0.6-3.2,1.8c-0.9,1.2-1.4,2.9-1.6,5C152.9,44.9,154.5,45,155.8,45"/>
	<path d="M167.8,52.7l4.9-2.1c0.3,3.2,2.1,4.8,5.4,4.8c1.3,0,2.2-0.2,2.8-0.7c0.6-0.5,0.9-1.1,0.9-1.9c0-0.9-0.5-1.7-1.4-2.4
		c-0.9-0.7-2-1.2-3.4-1.6c-1.3-0.4-2.6-0.9-3.9-1.4c-1.3-0.5-2.4-1.2-3.4-2.2c-0.9-1-1.4-2.2-1.4-3.6c0-2.2,0.9-3.9,2.7-5
		c1.8-1.1,4-1.7,6.7-1.7c4.9,0,8.1,1.8,9.5,5.3l-4.9,2.1c-0.2-1.6-0.6-2.7-1.3-3.3c-0.7-0.7-1.7-1-3-1c-1.2,0-2,0.2-2.7,0.7
		c-0.6,0.5-0.9,1.1-0.9,1.9c0,0.9,0.5,1.7,1.4,2.3c0.9,0.6,2,1.1,3.4,1.6c1.3,0.4,2.6,0.9,3.9,1.4c1.3,0.5,2.4,1.3,3.4,2.3
		c0.9,1,1.4,2.2,1.4,3.7c0,2.1-0.8,3.8-2.4,5c-1.6,1.2-4.1,1.8-7.3,1.8C172.8,58.5,169.4,56.6,167.8,52.7"/>
</g>
</svg>
